<?xml version="1.0" standalone="no"?>
<!DOCTYPE svg PUBLIC "-//W3C//DTD SVG 20010904//EN"
 "http://www.w3.org/TR/2001/REC-SVG-20010904/DTD/svg10.dtd">
<svg version="1.0" xmlns="http://www.w3.org/2000/svg"
 width="450.000000pt" height="450.000000pt" viewBox="0 0 450.000000 450.000000"
 preserveAspectRatio="xMidYMid meet">
<metadata>
Created by potrace 1.11, written by Peter Selinger 2001-2013
</metadata>
<g transform="translate(0.000000,450.000000) scale(0.100000,-0.100000)"
fill="#000000" stroke="none">
<path d="M2145 4201 c-20 -53 -41 -105 -46 -116 -5 -11 -34 -85 -65 -165 -111
-291 -156 -405 -165 -425 -4 -11 -28 -72 -53 -135 -24 -63 -61 -158 -81 -210
-100 -255 -311 -797 -346 -890 -23 -58 -47 -118 -54 -135 -7 -16 -34 -86 -60
-155 -26 -69 -53 -138 -60 -155 -7 -16 -43 -109 -81 -205 -162 -423 -195 -506
-204 -525 -5 -11 -25 -63 -45 -115 -38 -99 -160 -350 -174 -360 -4 -3 -20 -24
-35 -48 -88 -141 -237 -235 -391 -247 -22 -2 -43 -4 -47 -4 -5 -1 -8 -27 -8
-59 l0 -57 603 0 602 0 3 58 c2 31 -1 57 -5 56 -4 -1 -10 -1 -13 0 -3 1 -23 4
-45 5 -22 2 -53 6 -70 10 -16 3 -40 8 -52 11 -40 7 -107 42 -139 72 -71 66
-87 156 -53 283 16 60 234 638 269 715 8 17 134 342 311 800 28 72 54 139 59
150 5 11 91 229 190 484 99 256 181 466 183 467 2 2 29 -65 61 -149 32 -83 74
-192 93 -242 19 -49 46 -119 60 -155 14 -36 40 -105 60 -155 19 -49 44 -115
55 -145 12 -30 27 -68 34 -85 7 -16 28 -73 48 -125 19 -52 65 -171 101 -265
36 -93 106 -276 156 -405 49 -129 96 -249 104 -267 8 -17 15 -34 15 -37 0 -3
16 -48 36 -99 19 -50 49 -128 66 -172 16 -44 34 -89 39 -100 19 -43 49 -133
69 -205 34 -126 24 -216 -32 -285 -32 -38 -94 -74 -137 -80 -14 -2 -26 -4 -26
-5 0 -3 -41 -10 -90 -16 -27 -3 -52 -8 -56 -9 -4 -3 -4 -85 0 -105 0 -3 348
-5 771 -5 l770 0 1 40 c1 37 -1 68 -4 71 -1 1 -29 4 -62 8 -33 3 -73 8 -90 12
-16 3 -36 7 -42 7 -7 0 -13 3 -13 7 0 4 -6 7 -12 7 -28 0 -111 48 -159 91 -48
43 -139 153 -139 168 0 4 -6 15 -14 23 -22 25 -99 185 -144 301 -22 58 -95
247 -161 420 -146 379 -180 469 -192 495 -4 11 -49 128 -99 260 -50 132 -95
249 -100 260 -5 11 -28 70 -51 130 -50 132 -110 287 -254 660 -60 154 -115
298 -122 320 -8 22 -21 54 -28 70 -13 30 -130 331 -168 435 -11 30 -43 114
-71 185 l-52 130 -56 1 -57 1 -36 -96z"/>
</g>
</svg>
